<svg xmlns="http://www.w3.org/2000/svg" width="2240" viewBox="0 0 1680 945" height="1260" version="1.0">
  <defs>
    <clipPath id="a">
      <path d="M91.3 240.6h79.5v79.5H91.3Zm0 0"/>
    </clipPath>
    <clipPath id="b">
      <path d="M615 78h459.7v438H614.9Zm0 0"/>
    </clipPath>
    <clipPath id="c">
      <path d="M622.9 378.6h443.5V86.1H623Zm221.3-213.8a3.8 3.8 0 0 0 0 7.6 3.8 3.8 0 0 0 0-7.6Zm0 15.7a11.9 11.9 0 0 1-4-23v-34a11.9 11.9 0 1 1 8 0v34a11.9 11.9 0 0 1-4 23Zm0-72a3.8 3.8 0 1 0 0 7.6 3.8 3.8 0 0 0 0-7.6Zm0 227.2a3.8 3.8 0 0 0 0 7.6 3.8 3.8 0 1 0 0-7.6Zm0 15.6a11.9 11.9 0 0 1-4-23v-34a11.9 11.9 0 1 1 8 0v34a11.9 11.9 0 0 1-4 23Zm0-72a3.8 3.8 0 1 0 0 7.7 3.8 3.8 0 0 0 0-7.6Zm90.2-59a3.8 3.8 0 0 0 0 7.7 3.8 3.8 0 0 0 0-7.6Zm0 15.7a11.9 11.9 0 1 1 11.2-15.8h73a11.9 11.9 0 1 1 0 8h-73c-1.6 4.6-6 7.8-11.2 7.8Zm95.3-15.6a3.8 3.8 0 1 0 0 7.6 3.8 3.8 0 0 0 0-7.6Zm-373.5 0a3.8 3.8 0 0 0-3.8 3.8 3.8 3.8 0 0 0 7.6.3 7 7 0 0 1 0-.6c-.2-2-1.8-3.5-3.8-3.5Zm0 15.6a11.9 11.9 0 1 1 11.1-15.8h73a11.9 11.9 0 1 1 0 8h-73c-1.6 4.6-6 7.8-11.1 7.8Zm95.2-15.6a3.8 3.8 0 1 0 0 7.6 3.8 3.8 0 0 0 0-7.6Zm160-34.2a3.8 3.8 0 0 0 0 7.6 3.8 3.8 0 0 0 0-7.6Zm0 15.7a11.9 11.9 0 0 1-4-23v-43a4 4 0 0 1 4-4H974a11.9 11.9 0 1 1 0 8h-58.6v39a11.9 11.9 0 0 1-4 23Zm73.8-69.7a3.8 3.8 0 0 0 0 7.6 3.8 3.8 0 1 0 0-7.6ZM901 270.8a3.8 3.8 0 0 0 0 7.6 3.8 3.8 0 0 0 0-7.6Zm-4 15a11.9 11.9 0 1 1 8 0v38.9h58.6a11.9 11.9 0 1 1 0 8H901a4 4 0 0 1-4-4Zm77.8 39.1a3.8 3.8 0 1 0 0 7.6 3.8 3.8 0 0 0 0-7.6ZM784 268.3a3.8 3.8 0 0 0 0 7.6 3.8 3.8 0 0 0 0-7.6Zm-4 15a11.9 11.9 0 1 1 8 0v42.9a4 4 0 0 1-4 4h-62.6a11.9 11.9 0 1 1 0-8H780Zm-69.7 39.1c-2.1 0-3.8 1.7-3.8 3.8a3.8 3.8 0 1 0 3.8-3.8Zm89-105.9a18.5 18.5 0 0 0 0 37H889a18.5 18.5 0 0 0 1.5-36.9 4 4 0 0 1-3.7-3.9c-.4-10-8.5-18-18.6-18-6.3 0-12 3.3-15.5 8.6a4 4 0 0 1-6.8 0 18.5 18.5 0 0 0-34 10v.7a4 4 0 0 1-5.5 3.9c-2.3-1-4.6-1.4-7-1.4Zm89.7 45.1h-89.6A26.6 26.6 0 1 1 804 209a26.6 26.6 0 0 1 45.2-14.2 26.5 26.5 0 0 1 45.2 14.4 26.6 26.6 0 0 1-5.5 52.6Zm-105-75.4a3.8 3.8 0 1 0 0 7.6 3.8 3.8 0 0 0 0-7.6Zm0 15.7a11.9 11.9 0 0 1-4-23v-39h-58.6a11.9 11.9 0 1 1 0-8H784a4 4 0 0 1 4 4v43a11.9 11.9 0 0 1-4 23Zm-73.7-69.7c-2.1 0-3.8 1.7-3.8 3.8 0 2 1.7 3.8 3.8 3.8a3.8 3.8 0 0 0 0-7.6Zm134.4 383c-55.4 0-98.7-22-98.7-50 0-23.2 30.1-42.8 73.7-48.5v-30H618.9a4 4 0 0 1-4-4V82a4 4 0 0 1 4-4h451.6a4 4 0 0 1 4 4v300.6a4 4 0 0 1-4 4H869.6v30.1c43.6 5.6 73.7 25.3 73.7 48.4 0 28-43.3 50-98.6 50Zm-25-90.3c-38.3 5.1-65.6 21.7-65.6 40.2 0 22.8 41.5 42 90.6 42 49 0 90.6-19.2 90.6-42 0-18.5-27.4-35-65.7-40.2v40.8a4 4 0 0 1-4 4h-41.9a4 4 0 0 1-4-4Zm41.9-4.4v-33.8h-33.8v75h33.8Zm0 0" clip-rule="evenodd"/>
    </clipPath>

    <linearGradient x1="-4.2" gradientTransform="matrix(3.00294 0 0 3.00223 584.3 36.3)" y1="53.6" x2="177.7" gradientUnits="userSpaceOnUse" y2="119.8" id="d">
      <stop stop-color="#AF4CAB" offset="0"/>
      <stop stop-color="#4CAF50" offset=".7"/>
    </linearGradient>
  </defs>
  <path fill="#fff" d="M-168-94.5h2016v1134H-168z"/>
  <path fill="#fff" d="M-168-94.5h2016v1134H-168z"/>
  <path fill="#fff" d="M-168-94.5h2016v1134H-168z"/>
  <g clip-path="url(#a)">
    <path fill="#fff" d="M131 240.6a39.8 39.8 0 1 0 0 79.5 39.8 39.8 0 0 0 0-79.5"/>
  </g>
  <g clip-path="url(#b)">
    <g clip-path="url(#c)">
      <path fill="url(#d)" d="M615 78v437.2h459.5V78Zm0 0"/>
    </g>
  </g>
  <g clip-path="url(#e)">
    <path fill="#211f1e" d="M1055.9 644.3a9.9 9.9 0 0 0 0 19.7h30.9a9.9 9.9 0 0 0 0-19.7Zm30.9 25h-31a15.2 15.2 0 0 1 0-30.4h31a15.2 15.2 0 0 1 0 30.4"/>
  </g>
  <g clip-path="url(#f)">
    <path fill="#211f1e" d="M1046 708.2h50.6v-19.8H1046Zm53.3 5.3h-56a2.6 2.6 0 0 1-2.6-2.7v-25c0-1.5 1.2-2.7 2.6-2.7h56c1.4 0 2.6 1.2 2.6 2.6v25.1c0 1.5-1.2 2.7-2.6 2.7"/>
  </g>
  <g clip-path="url(#g)">
    <path fill="#211f1e" d="M1120.4 730.2h50.6v-19.7h-50.6Zm53.3 5.3h-56a2.7 2.7 0 0 1-2.6-2.6v-25c0-1.6 1.2-2.7 2.6-2.7h56c1.4 0 2.6 1.1 2.6 2.6v25c0 1.5-1.2 2.7-2.6 2.7"/>
  </g>
  <g clip-path="url(#h)">
    <path fill="#211f1e" d="m1049.4 787.7 22 10.6 21.8-10.6-21.9-10.7Zm22 16.2c-.5 0-.9 0-1.3-.2l-28-13.7a2.6 2.6 0 0 1 0-4.7l28-13.7c.8-.3 1.6-.3 2.4 0l28 13.7a2.6 2.6 0 0 1 0 4.7l-28 13.7c-.4.2-.8.2-1.2.2"/>
  </g>
  <path fill="#211f1e" d="M1071.3 688.4a2.7 2.7 0 0 1-2.6-2.7v-19a2.6 2.6 0 1 1 5.3 0v19c0 1.5-1.2 2.7-2.7 2.7M1071.3 732.5a2.7 2.7 0 0 1-2.6-2.6v-19a2.7 2.7 0 0 1 5.3 0v19c0 1.4-1.2 2.6-2.7 2.6"/>
  <g clip-path="url(#i)">
    <path fill="#211f1e" d="M1046 752.3h50.6v-19.8H1046Zm53.3 5.3h-56a2.6 2.6 0 0 1-2.6-2.6v-25.1c0-1.5 1.2-2.7 2.6-2.7h56c1.4 0 2.6 1.2 2.6 2.7v25c0 1.5-1.2 2.7-2.6 2.7"/>
  </g>
  <path fill="#211f1e" d="M1071.3 776.7a2.7 2.7 0 0 1-2.6-2.7v-19a2.7 2.7 0 1 1 5.3 0v19c0 1.5-1.2 2.7-2.7 2.7M1145.7 710.5a2.7 2.7 0 0 1-2.7-2.7v-29h-71.7a2.7 2.7 0 0 1 0-5.2h74.4c1.5 0 2.6 1.1 2.6 2.6v31.6c0 1.5-1.1 2.7-2.6 2.7"/>
  <path fill="#211f1e" d="M1145.7 767.1h-74.4a2.7 2.7 0 0 1 0-5.3h71.7v-29a2.7 2.7 0 0 1 5.3 0v31.7c0 1.4-1.1 2.6-2.6 2.6"/>
  <path fill="#231f20" d="M1468.5 644.6c-1.3 0-2.5-.5-3.4-1.4l-37-36.9 37-36.8a4.9 4.9 0 0 1 6.8 6.8l-30 30 30 30a4.8 4.8 0 0 1-3.4 8.3"/>
  <g clip-path="url(#j)">
    <path fill="#231f20" d="M1548 644.6a4.8 4.8 0 0 1-3.4-8.3l30-30-30-30a4.8 4.8 0 1 1 6.8-6.8l36.9 36.8-36.9 36.9c-1 .9-2.2 1.4-3.4 1.4"/>
  </g>
  <g clip-path="url(#k)">
    <path fill="#231f20" d="M1486.5 672.4a4.9 4.9 0 0 1-4.5-6.7l49.2-122.4a4.9 4.9 0 0 1 9 3.6L1491 669.3c-.8 2-2.6 3-4.5 3"/>
  </g>
  <g clip-path="url(#l)">
    <path d="m1475.1 225.5-1.5 1.6a15.5 15.5 0 0 1-10.5-14.4c0-2.1.5-4.2 1.4-6.2l-1.7-.4c0-.4-.1-.8-.4-1-.5-.6-1.3-.6-1.9 0a14 14 0 0 1-7.8-12.4c0-1.3.2-2.6.6-3.9h1.9a1.3 1.3 0 1 0 0-2.6h-1.7c-2.8-3-4.3-6.8-4.3-10.8 0-4.4 1.9-8.5 5-11.5h3.5a1.3 1.3 0 0 0 .2-2.7l1.3-.6a12.4 12.4 0 0 1 .4-16.6l1 1c.2.2.5.4.9.4a1.3 1.3 0 0 0 1-2.3l-1-.8c2-1.5 4.4-2.5 7-2.8-.2-1-.4-2-.4-3 0-5 3.7-9.2 8.6-10.4l2 2c.2.2.6.3.9.3-4.9 0-8.8 3.7-8.8 8.1 0 1.2.3 2.4.9 3.6.2.4.2.9 0 1.3-.3.4-.7.6-1.2.6-6.4 0-11.6 4.7-11.6 10.5a10 10 0 0 0 3.6 7.6 1.3 1.3 0 0 1-.5 2.3 14 14 0 0 0-10.2 13c0 3.9 1.7 7.5 4.8 10.1.5.4.6 1.1.3 1.7-1 1.7-1.5 3.6-1.5 5.5 0 6 4.8 10.9 11.3 11.5a1.3 1.3 0 0 1 1 2 12 12 0 0 0-2 6.5c0 6 4.5 11 10.5 12.4-.4 0-.8 0-1 .4Zm28.4-29.5h-14.2v-38h14.2c.7 0 1.3-.6 1.3-1.3V121c0-.4-.2-.8-.6-1 0-.2-3-2.2-7.7-2.6-5.9-.5-12.6 1.4-14.4 8.5h-1l-1-.1.4.4a1.3 1.3 0 0 1-1 2.2h1.6c2 .2 3.2.2 3.4-1 1.3-7.7 9.4-7.6 11.8-7.4 2.8.3 4.9 1.3 5.9 1.8v33.5H1488c-.7 0-1.3.6-1.3 1.4v40.6c0 .7.6 1.3 1.3 1.3h14.2V233c-6.4 2.6-11.3.9-13.8-.5-3.2-1.8-4.9-4.3-5-5.9-.1-.4-.3-.7-.6-.9a1.3 1.3 0 0 0-1-.3 14.6 14.6 0 0 1-5.3-.1c.2 0 .4.1.5.3.5.5.5 1.3 0 1.9l-.5.5a17.7 17.7 0 0 0 4.5.2 13 13 0 0 0 6.1 6.6c2.6 1.5 5.5 2.2 8.5 2.2 2.8 0 5.7-.7 8.4-2 .5-.2.8-.7.8-1.2v-36.4c0-.7-.6-1.3-1.3-1.3Zm36 29.5.3-.3a15.5 15.5 0 0 1-5 .1c-.3 0-.7 0-1 .3-.2.2-.4.5-.5.9-.1 1.6-1.8 4.1-5 6a15.3 15.3 0 0 1-13.8.4v-34.3h14.2c.7 0 1.3-.6 1.3-1.3v-40.6c0-.8-.6-1.4-1.3-1.4h-14.2v-33.5c1-.5 3-1.5 5.9-1.8 2.4-.2 10.5-.3 11.7 7.3.2 1.3 1.4 1.3 3.5 1.2h1.5c4.8 0 8.8 3.5 8.8 8 0 1.2-.3 2.4-.9 3.6-.2.4-.2.9 0 1.3.3.4.7.6 1.2.6 3 0 5.6 1 7.6 2.6-.2-.5-.2-1.1.3-1.5l.9-1c-2-1.3-4.3-2.3-6.9-2.6.3-1 .5-2 .5-3 0-5-3.8-9.3-8.8-10.4l-2 2a1.3 1.3 0 0 1-1.9 0c-.5-.6-.5-1.4 0-2l.4-.3h-1.8c-1.7-7-8.5-9-14.4-8.4-4.6.4-7.6 2.5-7.7 2.5-.3.3-.5.7-.5 1.1v35.7c0 .7.5 1.3 1.3 1.3h14.1v38h-14.1c-.8 0-1.3.6-1.3 1.3v36.4c0 .5.2 1 .7 1.2 2.8 1.3 5.7 2 8.5 2 3 0 5.8-.7 8.4-2.2a13 13 0 0 0 6.2-6.6 16.3 16.3 0 0 0 4.3-.2l-.6-.5c-.5-.6-.5-1.4 0-2Zm15.5-80.1-.4-.1a10 10 0 0 1 3.1 7.2 10 10 0 0 1-3.5 7.6c-.4.3-.5.8-.4 1.3 0 .5.4.8.9 1a14 14 0 0 1 10.1 13c0 3.9-1.7 7.5-4.7 10.1-.5.4-.6 1.1-.3 1.7l.2.3c0-.8.5-1.3 1.3-1.3h1.9c2.7-3 4.3-6.8 4.3-10.8 0-4.4-2-8.5-5.1-11.5h-3.6c-.8 0-1.3-.6-1.3-1.4 0-.7.5-1.2 1.2-1.3l-1.3-.6a12.4 12.4 0 0 0-.4-16.7l-1 1c-.3.3-.7.5-1 .5Zm5.5 43.1c.5 1.3.8 2.7.8 4.2 0 6-4.9 10.9-11.3 11.5a1.3 1.3 0 0 0-1 2c1.3 2 2 4.2 2 6.5 0 6-4.5 11-10.5 12.4.3 0 .6.2.8.4l1.7 1.6a15.5 15.5 0 0 0 10.6-14.4c0-2.1-.5-4.2-1.4-6.2.5 0 1-.2 1.5-.4 0-.4 0-.8.4-1 .5-.6 1.3-.6 1.8 0h.1a14 14 0 0 0 8-12.4c0-1.3-.3-2.6-.6-3.9h-2.1c-.3 0-.6-.1-.8-.3Zm-47-3.5h-3.5l-1.5-3.9h-7l-1.3 4h-3.6l6.6-17.2h3.9Zm-6-7-2.4-6.4-2.4 6.5Zm8.3-10v17h3.4v-17Zm-36.2-39.6a1.3 1.3 0 0 0 1-2.2l-.5-.4-14-14c-.2-.3-.6-.4-1-.4h-12.5a6.2 6.2 0 0 1 0 2.6h12l12.1 12.1 2 2c.2.2.6.3.9.3Zm-26.9-15.6-.1 1.2a6.3 6.3 0 1 1 .1-1.2Zm-2.6 0a3.7 3.7 0 1 0-7.4 0 3.7 3.7 0 0 0 7.4 0Zm11.4 32.6a1.3 1.3 0 0 0 1-2.3l-1-.8-10.2-10.3c-.2-.2-.6-.4-1-.4H1439a6.1 6.1 0 0 1 0 2.7h11l9.7 9.7 1 1c.2.2.5.4.9.4Zm-22.5-12.5-.1 1.4a6.3 6.3 0 1 1 .1-1.4Zm-2.6 0a3.7 3.7 0 1 0-7.4 0 3.7 3.7 0 0 0 7.4 0Zm22.6 29.6a1.3 1.3 0 0 0-1.3-1.3h-28.8a6.2 6.2 0 0 1 0 2.7h28.8c.7 0 1.3-.6 1.3-1.4Zm-30 0-.1 1.4a6.3 6.3 0 1 1 .1-1.4Zm-2.6 0a3.7 3.7 0 1 0-7.4 0 3.7 3.7 0 0 0 7.4 0Zm50.6 63c-.1-.2-.3-.3-.5-.3h-.3c-.4-.1-.8 0-1 .3l-1.6 1.6-9 8.9h-12a6.5 6.5 0 0 1 0 2.6h12.6c.3 0 .7-.1 1-.3l10.3-10.4.5-.5c.5-.6.5-1.4 0-2Zm-24.3 11.8-.1 1.3a6.3 6.3 0 1 1 .1-1.3Zm-2.6 0a3.7 3.7 0 1 0-7.4 0 3.7 3.7 0 0 0 7.4 0Zm12.3-32.2c-.5-.6-1.3-.6-1.9 0l-10.7 10.7H1439a6.1 6.1 0 0 1 0 2.6h11.5c.3 0 .7-.1 1-.4l11-11c.3-.3.4-.6.4-1 0-.3-.1-.7-.4-1Zm-23.4 12-.1 1.3a6.3 6.3 0 1 1 .1-1.3Zm-2.6 0a3.7 3.7 0 1 0-7.4 0 3.7 3.7 0 0 0 7.4 0Zm20.1-29.6c0-.8-.6-1.3-1.3-1.3h-26.3a6.2 6.2 0 0 1 0 2.6h26.3c.7 0 1.3-.6 1.3-1.3Zm-27.5 0-.1 1.3a6.3 6.3 0 1 1 .1-1.3Zm-2.6 0a3.7 3.7 0 1 0-7.4 0 3.7 3.7 0 0 0 7.4 0Zm109.5-59.5a1.3 1.3 0 0 0 2 0l1.9-2 12-12H1564a6.6 6.6 0 0 1 0-2.6H1551.3c-.4 0-.7.1-1 .4l-14 14-.4.4c-.5.5-.5 1.3 0 1.8Zm27.9-15.2.1-1.4a6.3 6.3 0 1 1-.1 1.4Zm2.6 0a3.7 3.7 0 1 0 7.4 0 3.7 3.7 0 0 0-7.4 0Zm-12.6 31.8.3.4.5.3h.4c.3 0 .7 0 1-.3l1-1 9.6-9.7h11a6.4 6.4 0 0 1 0-2.7H1566c-.4 0-.7.2-1 .4l-10.1 10.2-1 .9c-.4.4-.4 1-.2 1.5Zm23.6-11.7c0-.4 0-.8.2-1.3a6.3 6.3 0 1 1-.2 1.3Zm2.7 0a3.7 3.7 0 1 0 7.4 0 3.7 3.7 0 0 0-7.4 0Zm-22.7 29.6c0 .8.6 1.4 1.4 1.4h28.8a6.2 6.2 0 0 1 0-2.7H1558.7c-.7 0-1.3.6-1.3 1.3Zm30 0 .2-1.3a6.3 6.3 0 1 1-.2 1.3Zm2.7 0a3.7 3.7 0 1 0 7.4 0 3.7 3.7 0 0 0-7.4 0Zm-49.6 62.6c-.3 0-.5 0-.7.2l-.4.2c-.5.5-.5 1.3 0 1.9l.6.5 10.4 10.4c.2.2.5.3.9.3H1563.9a6.4 6.4 0 0 1 0-2.6H1551.8l-8.8-8.9-1.7-1.6c-.2-.3-.5-.4-.8-.4Zm23.3 12.2V236a6.3 6.3 0 0 1 12.6 1.3 6.3 6.3 0 0 1-12.6 0Zm2.6 0a3.7 3.7 0 1 0 7.4 0 3.7 3.7 0 0 0-7.4 0Zm-12.3-32.2a1.3 1.3 0 0 0 0 1.8l11 11.1c.3.3.6.4 1 .4h11.4a6.4 6.4 0 0 1 0-2.6h-10.9L1556 205c-.6-.6-1.4-.6-2 0Zm23.3 12c0-.5 0-1 .2-1.3a6.3 6.3 0 1 1-.2 1.3Zm2.7 0a3.7 3.7 0 1 0 7.4 0 3.7 3.7 0 0 0-7.4 0Zm7.5-31h-26.3c-.8 0-1.3.7-1.3 1.4 0 .4.2.8.5 1 .2.2.5.3.8.3h26.3a6.2 6.2 0 0 1 0-2.6Zm12.5 1.4a6.3 6.3 0 1 1-12.7 0 6.3 6.3 0 0 1 12.7 0Zm-2.6 0a3.7 3.7 0 1 0-7.4 0 3.7 3.7 0 0 0 7.4 0Zm0 0"/>
  </g>
  <g clip-path="url(#m)">
    <path d="M152.9 129.3a22.6 22.6 0 0 0-10.2-19 22.8 22.8 0 0 0-35.5 19v13a22.6 22.6 0 0 0 10.1 19 23.5 23.5 0 0 0 12.7 4 22.6 22.6 0 0 0 20.2-12.2 22.8 22.8 0 0 0 2.7-10.8Zm-6.6 13a16.8 16.8 0 0 1-2.7 9.1 16.2 16.2 0 0 1-15.2 7.2 15.4 15.4 0 0 1-6-1.9 17.5 17.5 0 0 1-5-4 16.1 16.1 0 0 1-3.7-10.4v-13a15.6 15.6 0 0 1 2-7.7 16.8 16.8 0 0 1 8-7.4 15.7 15.7 0 0 1 9.5-1 16.4 16.4 0 0 1 11.9 9.8 17.4 17.4 0 0 1 1.2 6.3Zm49 42.5a23.7 23.7 0 0 0-10.8 2.7 21.8 21.8 0 0 0-6.9 5.7 24.2 24.2 0 0 0-4.7 10 23.6 23.6 0 0 0-.5 4.5v13a22.6 22.6 0 0 0 10.2 19 23.4 23.4 0 0 0 15 3.8 22.4 22.4 0 0 0 13.8-6.6 23.3 23.3 0 0 0 6.7-16.1v-13.1a22.5 22.5 0 0 0-8.3-17.7 22.1 22.1 0 0 0-10-4.7 23.6 23.6 0 0 0-4.5-.5Zm16.3 36a17 17 0 0 1-2.8 9 16.8 16.8 0 0 1-7.3 6 15 15 0 0 1-4.6 1.2 15.6 15.6 0 0 1-7.9-1.1 16.8 16.8 0 0 1-7.3-6 15.8 15.8 0 0 1-2.7-7.5v-14.7a15.7 15.7 0 0 1 1.9-7.7 15.2 15.2 0 0 1 4-5 16.8 16.8 0 0 1 8.8-3.6 15.6 15.6 0 0 1 7.8 1.2 16.3 16.3 0 0 1 10 15Zm6.5-58.9a3.3 3.3 0 0 1-2 3c-.4.2-.8.3-1.3.3h-39.1c-.4 0-.9 0-1.3-.2a3.2 3.2 0 0 1-1.7-1.8 3.3 3.3 0 0 1 1.7-4.3l1.3-.2H192v-43.8l-8.3 4.2a3.3 3.3 0 0 1-4.4-1.4 3.3 3.3 0 0 1 1.5-4.4l13-6.6a3.3 3.3 0 0 1 4.7 3v49h16.3a3.3 3.3 0 0 1 3.3 3.2Zm-91.3 75.2v-43.7l-8.4 4.1a3.2 3.2 0 0 1-2.5.2 3.2 3.2 0 0 1-1.9-1.6 3.2 3.2 0 0 1-.1-2.5 3.2 3.2 0 0 1 1.6-1.9l13-6.5a3.3 3.3 0 0 1 1.7-.4 3.2 3.2 0 0 1 2.7 1.7 3.4 3.4 0 0 1 .4 1.6v49h16.3a3.3 3.3 0 0 1 2.3 5.6 3.3 3.3 0 0 1-2.3 1h-39.2a3.3 3.3 0 0 1-3-4.6l.7-1a3.2 3.2 0 0 1 2.3-1Zm0 0"/>
  </g>
  <g clip-path="url(#n)">
    <path d="M226 672.4H121c-7.7 0-13.9-6.3-13.9-13.9v-105c0-7.7 6.2-13.9 13.9-13.9h105c7.7 0 13.9 6.2 13.9 13.8v105.1c0 7.6-6.2 13.9-13.8 13.9ZM121 545a8.3 8.3 0 0 0-8.3 8.3v105.1c0 4.6 3.7 8.3 8.3 8.3h105c4.6 0 8.4-3.7 8.4-8.3v-105c0-4.6-3.8-8.4-8.3-8.4Zm0 0"/>
  </g>
  <g clip-path="url(#o)">
    <path d="M173.5 672.4a2.8 2.8 0 0 1-2.8-2.8V542.4a2.8 2.8 0 0 1 5.6 0v127.2c0 1.5-1.3 2.8-2.8 2.8Zm0 0"/>
  </g>
  <g clip-path="url(#p)">
    <path d="M237.1 608.7H110a2.8 2.8 0 0 1 0-5.5h127.2a2.8 2.8 0 0 1 0 5.5Zm0 0"/>
  </g>
  <path d="M140.3 589.4a2.8 2.8 0 0 1-2.7-2.8v-22.1a2.8 2.8 0 0 1 5.5 0v22.1c0 1.5-1.2 2.8-2.8 2.8Zm0 0"/>
  <path d="M151.4 578.3h-22.1a2.8 2.8 0 0 1 0-5.5h22a2.8 2.8 0 0 1 0 5.5ZM132 650.2a2.8 2.8 0 0 1-2-4.7l16.7-16.6a2.8 2.8 0 0 1 3.9 4L134 649.3c-.6.6-1.3.8-2 .8Zm0 0"/>
  <path d="M148.6 650.2c-.7 0-1.4-.2-2-.8l-16.5-16.6a2.8 2.8 0 0 1 3.9-3.9l16.6 16.6a2.8 2.8 0 0 1-2 4.7ZM217.8 578.3h-22.2a2.8 2.8 0 0 1 0-5.5h22.2a2.8 2.8 0 0 1 0 5.5ZM217.8 650.2h-22.2a2.8 2.8 0 0 1 0-5.5h22.2a2.8 2.8 0 0 1 0 5.5ZM217.8 633.6h-22.2a2.8 2.8 0 0 1 0-5.5h22.2a2.8 2.8 0 0 1 0 5.5Zm0 0"/>
  <g clip-path="url(#q)">
    <path d="M708.9 665h-59a2.7 2.7 0 0 0-1.2.1 2.7 2.7 0 0 0-1 .7 3 3 0 0 0-.9 2.2l.1 18.4c-8-2-13.9-.3-17.9 5.2a14.9 14.9 0 0 0-.4 17c3.8 5.8 9.3 7.6 18.2 5.9v15.7H627c-1.2 0-2.8 0-3.6 1.7-.7 1.6.2 2.7 1 3.7a8.8 8.8 0 0 1 2 8A9.3 9.3 0 0 1 613 750a9.5 9.5 0 0 1-4.5-12c.3-1 .8-1.7 1.4-2.5a2.9 2.9 0 0 0 1.2-1.7 3 3 0 0 0-3.7-3.6h-22c-2.6 0-3.6 1-3.6 3.6V792a8.6 8.6 0 0 0 5.3 8.4 8.6 8.6 0 0 0 3.5.6 74600.8 74600.8 0 0 0 120-.1 8.3 8.3 0 0 0 7-7c.1-.6.2-1.2.1-1.8a149527.7 149527.7 0 0 0 0-120.1 8.4 8.4 0 0 0-8.8-7.1Zm-60.4 106.9a3.3 3.3 0 0 0-1.6 3.4v20.1h-55.3c-3.4 0-4.2-.7-4.2-4.1V736h15.7c-1.8 8.3-.1 14 5.5 17.8a15 15 0 0 0 16.9.2c5.7-3.8 7.5-9.4 5.7-18h15.6v20.5a3.8 3.8 0 0 0 1.6 2.8c1.6 1 3.1-.3 3.6-.7a9.3 9.3 0 0 1 11.3-.9 9.3 9.3 0 0 1 4.2 8.7 9.5 9.5 0 0 1-3.8 6.8c-.5.4-1.1.8-1.8 1a8.7 8.7 0 0 1-7.6 0c-.8-.4-1.5-.9-2.2-1.5a3 3 0 0 0-3.6-.8Zm59.6 23.6h-55.5v-15.8c8.2 2.4 14.5.1 18.7-6.8a14.3 14.3 0 0 0-1.3-16.6c-4.5-5.4-10.4-7-17.4-4.7v-15.7H673a3 3 0 0 0 2.6-1c.3-.1.4-.4.6-.7a3.1 3.1 0 0 0 .1-1.9 3.1 3.1 0 0 0-1-1.6 9.7 9.7 0 0 1-2.2-6.1 8.6 8.6 0 0 1 .5-3.3 9.3 9.3 0 0 1 18.1 2.5 9 9 0 0 1-2.3 6.9 2.8 2.8 0 0 0-1 1.6v1c0 .3 0 .6.2 1a3.3 3.3 0 0 0 1.4 1.3 3.2 3.2 0 0 0 2 .2H712v55.5c0 3.3-.8 4.2-4 4.2Zm4-65.4h-15.7c2.4-8.2.2-14.4-6.7-18.6a14.5 14.5 0 0 0-14.9 0l-1.8 1.2c-5.4 4.5-7 10.4-4.7 17.4h-15.8v-19.9a3 3 0 0 0-.7-2.9 3 3 0 0 0-4.5.3 9.2 9.2 0 0 1-14-2.3 9.8 9.8 0 0 1-1.4-5 9.7 9.7 0 0 1 1.6-5.1 9.6 9.6 0 0 1 5.7-4 9 9 0 0 1 5.3.3 9.5 9.5 0 0 1 3 1.9 2.8 2.8 0 0 0 1.7 1 2.8 2.8 0 0 0 3.1-1.8c.3-.6.4-1.2.3-1.9v-20h55.6c3.1 0 4 .8 4 4v40.7ZM594 704.9l3.3 1.3 8.9 3.5c2.1.9 3.5.4 4.3-1.6l6.6-16.8a3.6 3.6 0 0 0-.6-3.2c-.6-.7-1.9-.7-3-.7-.5 0-1 0-1.6.2a6.3 6.3 0 0 1-2.4-.1 6.5 6.5 0 0 1-4-2.8 7 7 0 0 1-1.2-3.5 6.6 6.6 0 0 1 2.6-5.4 6.6 6.6 0 0 1 2.2-1.2 6.6 6.6 0 0 1 7.9 3.3c.4.7 1.4 2.4 3 1.9 1.2-.4 2-1.2 2.5-2.3 1.9-4.4 3.6-8.9 5.3-13.2l1.1-2.8c1-2.4.5-3.7-2-4.7l-7.2-2.8-13.2-5.3a14710.5 14710.5 0 0 0-23.1-9 7 7 0 0 0-4.5.2 7.2 7.2 0 0 0-4 4.3 9350.5 9350.5 0 0 0-17.4 44 2.9 2.9 0 0 0 .5 2 2.9 2.9 0 0 0 1.8 1l7.2 3 4.1 1.6.9.4a12 12 0 0 0-2.4 10.9 11.7 11.7 0 0 0 1.5 3.5 11.5 11.5 0 0 0 12 5.7c6.2-.9 9.8-4.7 10.9-11.4Zm-18.8 1.3a6.7 6.7 0 0 1 2.6-7.7l.5-.4c1-.6 2.3-1.3 2-3.1-.2-1.8-1.6-2.3-2.7-2.7l-.6-.2-13-5.2v-.2l.5-1.3 1-2.3 14.3-36.2c.8-1.8 1.4-2.1 3.2-1.4l33.8 13.4 5.7 2.3c.1 0 .3 0 .4.2l-4 10c-5.3-3.7-10.6-3.7-15.5 0a11.5 11.5 0 0 0-4.5 12c1.2 5.8 5 9.2 11.3 10.1l-4 10.2-13.1-5.2a3 3 0 0 1-.3-.2c-.3-.2-.7-.3-1-.3h-.7c-.9-.1-1.7 0-2.5.5-.7.6-.7 1.8-.7 2.9v.2l.1 1.7c.2.7.2 1.4.1 2a6.5 6.5 0 0 1-6 5.5 6.7 6.7 0 0 1-7-4.6Zm0 0"/>
  </g>
  <path d="M77.9 332.5v-39.8h13c4.3 0 7.6.9 9.7 2.7 2.2 1.7 3.3 4.4 3.3 7.9a8 8 0 0 1-1.6 5c-1 1.4-2.5 2.5-4.3 3.2 2.1.6 3.8 1.8 5 3.5a9.9 9.9 0 0 1 2 6c0 3.6-1.2 6.4-3.5 8.4s-5.6 3-9.8 3Zm5.2-18.6v14.3h8.7c2.4 0 4.4-.6 5.8-1.9 1.4-1.3 2-3 2-5.2 0-4.8-2.5-7.2-7.7-7.2Zm0-4.2h8c2.2 0 4-.6 5.5-1.8 1.3-1.1 2-2.7 2-4.6 0-2.2-.6-3.8-1.9-4.8-1.3-1-3.2-1.5-5.8-1.5H83ZM117.4 332.5h-5v-29.6h5ZM112 295c0-.9.2-1.6.7-2.1.5-.6 1.3-.9 2.2-.9 1 0 1.8.3 2.3.9.5.5.7 1.2.7 2a3 3 0 0 1-.7 2.1c-.5.6-1.3.8-2.3.8-1 0-1.7-.2-2.2-.8a3 3 0 0 1-.7-2ZM132.4 295.7v7.2h5.5v4h-5.5v18.3c0 1.1.2 2 .7 2.6.5.6 1.4 1 2.5 1l2.5-.4v4c-1.4.5-2.7.6-4 .6-2.2 0-4-.6-5-2a8.8 8.8 0 0 1-1.8-5.8v-18.4H122V303h5.4v-7.2ZM163.2 332.5h-5v-42h5ZM170 317.4c0-2.9.5-5.5 1.6-7.8 1.2-2.3 2.8-4.1 4.8-5.4a13 13 0 0 1 7-1.9c4 0 7.2 1.4 9.7 4.2 2.5 2.8 3.8 6.5 3.8 11.2v.3c0 3-.6 5.5-1.7 7.8a12.7 12.7 0 0 1-11.8 7.2c-4 0-7.3-1.4-9.8-4.2a16 16 0 0 1-3.7-11Zm5 .6c0 3.3.8 6 2.3 8 1.5 2 3.5 3 6.1 3 2.6 0 4.6-1 6.1-3.1a14 14 0 0 0 2.3-8.5c0-3.2-.8-5.9-2.3-7.9-1.6-2-3.6-3-6.1-3-2.5 0-4.6 1-6 3-1.6 2-2.4 4.8-2.4 8.5ZM202 317.4c0-4.6 1-8.2 3.2-11 2.1-2.7 5-4 8.5-4 3.6 0 6.4 1.2 8.4 3.8l.3-3.3h4.6v28.9a12 12 0 0 1-3.4 9 12.6 12.6 0 0 1-9.2 3.3c-2.1 0-4.2-.4-6.2-1.3-2-1-3.6-2.2-4.7-3.8l2.6-3a10 10 0 0 0 8 4c2.4 0 4.4-.7 5.7-2a8 8 0 0 0 2.1-6v-2.5c-2 2.4-4.8 3.5-8.3 3.5-3.5 0-6.3-1.4-8.4-4.2a18.3 18.3 0 0 1-3.2-11.4Zm5 .6c0 3.4.8 6 2.1 7.9 1.4 1.9 3.3 2.8 5.8 2.8 3.2 0 5.5-1.4 7-4.3v-13.5a7.5 7.5 0 0 0-7-4.3c-2.4 0-4.4 1-5.7 3-1.4 1.8-2.1 4.7-2.1 8.4ZM240.1 332.5h-5v-29.6h5Zm-5.5-37.4c0-.9.3-1.6.8-2.1.5-.6 1.2-.9 2.2-.9 1 0 1.7.3 2.3.9.5.5.7 1.2.7 2a3 3 0 0 1-.7 2.1c-.6.6-1.3.8-2.3.8-1 0-1.7-.2-2.2-.8a3 3 0 0 1-.8-2ZM260 329c1.9 0 3.4-.6 4.8-1.7 1.3-1.1 2-2.5 2.2-4.1h4.8c0 1.7-.7 3.3-1.7 4.8a12.4 12.4 0 0 1-10 5c-4 0-7.3-1.3-9.7-4a16 16 0 0 1-3.5-11v-.9c0-2.9.5-5.4 1.6-7.7a12.1 12.1 0 0 1 11.5-7c3.3 0 6.1 1 8.3 3 2.2 2 3.4 4.5 3.5 7.7H267a7 7 0 0 0-2.1-4.7 6.7 6.7 0 0 0-4.9-1.9c-2.5 0-4.5 1-6 2.8a13.1 13.1 0 0 0-2 8v1c0 3.4.6 6 2 7.8a7.1 7.1 0 0 0 6 2.8ZM53.8 721.6l13 32.5 13-32.5h6.8v39.8h-5.2V746l.5-16.7-13.1 32.2h-4l-13-32.1.5 16.6v15.5H47v-39.8ZM113.4 761.4c-.3-.6-.6-1.6-.7-3.1a11.3 11.3 0 0 1-8.5 3.7c-2.9 0-5.3-.9-7.2-2.5a8 8 0 0 1-2.8-6.3c0-3 1.2-5.5 3.6-7.2 2.3-1.7 5.6-2.5 9.8-2.5h5v-2.3c0-1.8-.6-3.2-1.6-4.3-1-1-2.6-1.5-4.7-1.5-1.8 0-3.3.4-4.5 1.3-1.3 1-1.9 2-1.9 3.3h-5a7 7 0 0 1 1.5-4.2c1-1.4 2.5-2.5 4.3-3.3 1.8-.8 3.7-1.2 5.9-1.2 3.4 0 6 .8 8 2.5s3 4.1 3 7v13.7c0 2.7.4 4.9 1 6.5v.4Zm-8.4-3.8a9 9 0 0 0 4.5-1.3 7.4 7.4 0 0 0 3-3.2v-6h-3.9c-6.2 0-9.3 1.8-9.3 5.4 0 1.6.5 2.8 1.6 3.7 1 1 2.4 1.4 4 1.4ZM132.4 724.7v7.1h5.5v4h-5.5V754c0 1.2.2 2 .7 2.7.5.5 1.4.8 2.6.8.6 0 1.4 0 2.4-.3v4.1c-1.4.4-2.7.6-4 .6-2.2 0-3.9-.7-5-2a8.8 8.8 0 0 1-1.7-6v-18.3H122v-3.9h5.4v-7.1ZM148.9 735.4c2.2-2.7 5.2-4.1 8.7-4.1 6.3 0 9.4 3.5 9.5 10.6v19.5h-5v-19.6c0-2.1-.6-3.7-1.5-4.7-1-1-2.5-1.5-4.5-1.5-1.6 0-3 .4-4.3 1.3-1.3.9-2.2 2-2.9 3.4v21.1h-5v-42h5ZM194 761.4h-5v-42h5ZM200.8 746.4c0-3 .5-5.6 1.7-7.9 1.1-2.3 2.7-4 4.7-5.3a13 13 0 0 1 7-2c4 0 7.3 1.5 9.8 4.3 2.5 2.8 3.7 6.5 3.7 11v.4c0 3-.5 5.5-1.6 7.8a12.7 12.7 0 0 1-11.8 7.3c-4 0-7.3-1.4-9.8-4.2a16 16 0 0 1-3.7-11.1Zm5 .5c0 3.3.8 6 2.4 8 1.5 2 3.5 3 6 3 2.6 0 4.7-1 6.2-3a14 14 0 0 0 2.3-8.5c0-3.3-.8-6-2.4-8-1.5-2-3.5-3-6-3-2.6 0-4.6 1-6.1 3-1.6 2-2.3 4.9-2.3 8.5ZM232.9 746.4c0-4.6 1-8.3 3.2-11 2-2.8 5-4.1 8.4-4.1 3.6 0 6.5 1.3 8.5 3.8l.2-3.3h4.7v28.9a12 12 0 0 1-3.5 9 12.6 12.6 0 0 1-9.1 3.4c-2.1 0-4.2-.5-6.3-1.4-2-1-3.6-2.2-4.6-3.8l2.6-3a10 10 0 0 0 8 4c2.4 0 4.3-.7 5.7-2a8 8 0 0 0 2-5.9v-2.5c-2 2.3-4.7 3.5-8.2 3.5-3.5 0-6.3-1.4-8.4-4.2a18.3 18.3 0 0 1-3.2-11.4Zm5 .5c0 3.4.7 6 2.1 8 1.4 1.8 3.3 2.8 5.7 2.8 3.2 0 5.6-1.5 7-4.4v-13.5a7.5 7.5 0 0 0-7-4.2c-2.4 0-4.3 1-5.7 2.8-1.4 2-2 4.8-2 8.5ZM271 761.4h-5v-29.6h5Zm-5.5-37.4c0-.8.3-1.5.8-2.1.5-.6 1.2-.8 2.2-.8 1 0 1.7.2 2.2.8.5.6.8 1.3.8 2a3 3 0 0 1-.8 2.1c-.5.6-1.2.9-2.2.9-1 0-1.7-.3-2.2-.9a3 3 0 0 1-.8-2ZM291 757.8c1.7 0 3.3-.5 4.7-1.6 1.3-1.1 2-2.5 2.2-4.1h4.8c-.1 1.7-.7 3.3-1.8 4.8a12.4 12.4 0 0 1-10 5c-4 0-7.2-1.3-9.6-4a16 16 0 0 1-3.6-11v-.9c0-2.8.6-5.4 1.6-7.6a12.1 12.1 0 0 1 11.6-7.1c3.3 0 6 1 8.3 3 2.2 2 3.3 4.5 3.5 7.7h-4.8a7 7 0 0 0-2.2-4.7 6.7 6.7 0 0 0-4.8-1.9c-2.6 0-4.6 1-6 2.8a13.1 13.1 0 0 0-2 8v1c0 3.4.6 6 2 7.9a7.1 7.1 0 0 0 6 2.7ZM550.7 878.7v15.6h-5.3v-39.8h14.7c4.4 0 7.8 1.1 10.3 3.4 2.4 2.2 3.7 5.1 3.7 8.8 0 3.9-1.3 6.8-3.7 9-2.4 2-5.8 3-10.3 3Zm0-4.2h9.4c2.8 0 5-.7 6.5-2 1.5-1.4 2.2-3.3 2.2-5.8 0-2.3-.7-4.2-2.2-5.6a8.8 8.8 0 0 0-6.2-2.3h-9.7ZM598.2 891.4c-2 2.3-4.8 3.5-8.6 3.5-3.2 0-5.6-1-7.3-2.8-1.6-1.8-2.4-4.5-2.5-8.1v-19.3h5.1V884c0 4.4 1.8 6.7 5.5 6.7 3.8 0 6.4-1.5 7.7-4.3v-21.6h5v29.6h-4.8ZM615.6 890.2h17.3v4.1h-23.5v-3.7l16.3-21.7h-16v-4.2H632v3.6ZM643.3 890.2h17.3v4.1h-23.4v-3.7l16.3-21.7h-16.1v-4.2h22.4v3.6ZM671.8 894.3h-5v-42h5ZM692.2 894.9a13 13 0 0 1-9.8-4 14.7 14.7 0 0 1-3.8-10.5v-1c0-3 .6-5.5 1.7-7.8s2.7-4.1 4.7-5.4c2-1.4 4.2-2 6.6-2a11 11 0 0 1 9 3.8c2 2.5 3.1 6.2 3.1 10.9v2h-20c0 3 1 5.4 2.5 7.2a8 8 0 0 0 6.3 2.6c1.7 0 3.3-.3 4.5-1 1.2-.8 2.3-1.7 3.3-3l3 2.5a12.4 12.4 0 0 1-11.1 5.7Zm-.6-26.6c-2 0-3.8.8-5.2 2.3a10.9 10.9 0 0 0-2.5 6.2h14.8v-.4a9.7 9.7 0 0 0-2.1-6 6.4 6.4 0 0 0-5-2ZM726.8 886.5c0-1.4-.5-2.5-1.5-3.2-1-.8-2.9-1.4-5.4-2a26 26 0 0 1-6.1-2 8.7 8.7 0 0 1-3.4-2.7 7.7 7.7 0 0 1 2-10 12 12 0 0 1 7.9-2.4c3.3 0 6 .9 8.2 2.6 2 1.7 3 4 3 6.6h-5c0-1.3-.6-2.5-1.8-3.5a6.6 6.6 0 0 0-4.4-1.6 7 7 0 0 0-4.3 1.2c-1 .9-1.6 1.9-1.6 3.2a3 3 0 0 0 1.5 2.8 18 18 0 0 0 5.2 1.7c2.5.6 4.6 1.3 6.1 2 1.6.8 2.8 1.8 3.5 2.9a7 7 0 0 1 1.2 4c0 2.7-1.1 4.8-3.2 6.4a13.3 13.3 0 0 1-8.2 2.4 15 15 0 0 1-6.3-1.3c-1.9-.8-3.3-2-4.3-3.5a8.5 8.5 0 0 1-1.6-4.9h5.1c.1 1.7.8 3 2 4a8 8 0 0 0 5 1.5c2 0 3.5-.3 4.7-1.1a3.6 3.6 0 0 0 1.7-3.1ZM998.6 884H982l-3.8 10.3h-5.4l15.2-39.8h4.6l15.2 39.8h-5.4Zm-15-4.4H997l-6.8-18.6ZM1017.9 894.3h-5v-42h5ZM1024.8 879.3c0-4.6 1-8.3 3.2-11 2.1-2.7 5-4.1 8.4-4.1 3.7 0 6.5 1.3 8.5 3.8l.2-3.3h4.7v29a12 12 0 0 1-3.4 9 12.6 12.6 0 0 1-9.2 3.3c-2.1 0-4.2-.5-6.2-1.4-2-.9-3.6-2.1-4.7-3.7l2.6-3a10 10 0 0 0 8 4c2.4 0 4.3-.8 5.7-2.1a8 8 0 0 0 2-5.9v-2.5c-2 2.3-4.7 3.5-8.2 3.5-3.5 0-6.3-1.4-8.4-4.2a18.3 18.3 0 0 1-3.2-11.4Zm5 .6c0 3.3.7 6 2.1 7.8 1.4 2 3.3 2.9 5.7 2.9 3.2 0 5.6-1.5 7-4.4v-13.5a7.5 7.5 0 0 0-6.9-4.2c-2.5 0-4.4 1-5.8 2.9-1.3 1.9-2 4.7-2 8.5ZM1056 879.3c0-3 .6-5.6 1.7-7.9 1.2-2.3 2.8-4 4.8-5.3a13 13 0 0 1 7-2c4 0 7.3 1.5 9.7 4.3 2.5 2.8 3.8 6.5 3.8 11.1v.4c0 2.8-.6 5.4-1.7 7.7a12.7 12.7 0 0 1-11.8 7.3c-4 0-7.2-1.4-9.7-4.2a16 16 0 0 1-3.8-11Zm5.1.6c0 3.2.8 5.9 2.3 7.9 1.5 2 3.6 3 6.1 3 2.6 0 4.6-1 6.2-3a14 14 0 0 0 2.2-8.5c0-3.3-.8-6-2.3-8-1.5-2-3.6-3-6.1-3-2.5 0-4.5 1-6 3-1.6 2-2.4 4.9-2.4 8.6ZM1103.6 869.3l-2.5-.2c-3.3 0-5.5 1.4-6.7 4.2v21h-5v-29.6h4.8l.1 3.5c1.7-2.7 4-4 7-4 1 0 1.8.1 2.3.4ZM1113.8 894.3h-5v-29.6h5Zm-5.5-37.4c0-.8.2-1.5.7-2 .5-.7 1.3-1 2.3-1 1 0 1.7.3 2.2 1 .5.5.8 1.2.8 2a3 3 0 0 1-.8 2c-.5.6-1.2.9-2.2.9-1 0-1.8-.3-2.3-.8a3 3 0 0 1-.7-2.1ZM1128.7 857.6v7.1h5.5v4h-5.5V887c0 1.2.3 2 .8 2.7.5.6 1.3.8 2.5.8.6 0 1.4 0 2.4-.3v4.1c-1.3.4-2.6.6-3.9.6-2.3 0-4-.7-5.1-2a8.8 8.8 0 0 1-1.7-5.9v-18.3h-5.4v-4h5.4v-7.1ZM1145.2 868.3c2.2-2.7 5.2-4.1 8.8-4.1 6.2 0 9.4 3.5 9.4 10.6v19.5h-5v-19.6c0-2-.5-3.7-1.5-4.7s-2.5-1.5-4.5-1.5c-1.6 0-3 .4-4.3 1.3-1.2.9-2.2 2-2.9 3.4v21.1h-5v-42h5ZM1175.8 864.7v3.3a11 11 0 0 1 8.9-3.8c4 0 7 1.6 8.4 4.8a11.1 11.1 0 0 1 9.4-4.8c6.5 0 9.8 3.4 10 10.3v19.8h-5.1v-19.5c0-2.1-.5-3.7-1.5-4.7s-2.6-1.6-4.8-1.6c-2 0-3.5.5-4.7 1.7a6.8 6.8 0 0 0-2.2 4.5v19.6h-5V875c0-4.3-2.2-6.4-6.4-6.4-3.3 0-5.6 1.4-6.8 4.2v21.6h-5v-29.6ZM1237.3 886.5c0-1.4-.5-2.5-1.6-3.2-1-.8-2.8-1.4-5.3-2a26 26 0 0 1-6.2-2 8.7 8.7 0 0 1-3.3-2.7 7.7 7.7 0 0 1 2-10 12 12 0 0 1 7.9-2.4c3.3 0 6 .9 8.1 2.6 2.1 1.7 3.2 4 3.2 6.6h-5.1c0-1.3-.6-2.5-1.8-3.5a6.6 6.6 0 0 0-4.4-1.6 7 7 0 0 0-4.3 1.2c-1 .9-1.6 1.9-1.6 3.2a3 3 0 0 0 1.4 2.8 18 18 0 0 0 5.3 1.7c2.5.6 4.6 1.3 6.1 2 1.6.8 2.8 1.8 3.5 2.9a7 7 0 0 1 1.1 4c0 2.7-1 4.8-3.1 6.4a13.3 13.3 0 0 1-8.2 2.4 15 15 0 0 1-6.3-1.3c-1.9-.8-3.3-2-4.3-3.5a8.5 8.5 0 0 1-1.6-4.9h5c.2 1.7.9 3 2.1 4a8 8 0 0 0 5 1.5c2 0 3.5-.3 4.6-1.1a3.6 3.6 0 0 0 1.8-3.1ZM1410.4 748.8c-.5 4.2-2 7.5-4.7 9.7-2.6 2.3-6 3.5-10.4 3.5a14 14 0 0 1-11.3-5.1 20.3 20.3 0 0 1-4.3-13.5v-3.9c0-3.7.7-6.9 2-9.7a14.7 14.7 0 0 1 14-8.7c4.3 0 7.7 1.1 10.2 3.5 2.6 2.4 4 5.6 4.5 9.8h-5.3c-.5-3.2-1.4-5.5-3-6.9a9 9 0 0 0-6.3-2.1c-3.4 0-6 1.2-8 3.7a17 17 0 0 0-2.8 10.6v3.8c0 4.3.9 7.8 2.7 10.3a8.8 8.8 0 0 0 7.6 3.9c2.9 0 5.1-.7 6.7-2 1.5-1.3 2.6-3.6 3-7ZM1415.4 746.4c0-3 .6-5.6 1.7-7.9a13 13 0 0 1 11.7-7.3c4 0 7.3 1.5 9.8 4.3 2.5 2.8 3.7 6.5 3.7 11v.4c0 3-.5 5.5-1.6 7.8a12.7 12.7 0 0 1-11.8 7.3c-4 0-7.3-1.4-9.8-4.2a16 16 0 0 1-3.7-11.1Zm5 .5c0 3.3.8 6 2.4 8 1.5 2 3.5 3 6 3 2.7 0 4.7-1 6.2-3a14 14 0 0 0 2.3-8.5c0-3.3-.8-6-2.3-8-1.6-2-3.6-3-6.2-3-2.5 0-4.5 1-6 3s-2.3 4.9-2.3 8.5ZM1447.4 746.4c0-4.6 1.1-8.2 3.3-11 2.1-2.7 5-4.1 8.4-4.1 3.5 0 6.2 1.2 8.2 3.5v-15.4h5.1v42h-4.6l-.3-3.2c-2 2.5-4.8 3.8-8.4 3.8-3.5 0-6.3-1.4-8.4-4.2a17.6 17.6 0 0 1-3.3-11Zm5.1.5c0 3.4.7 6 2 8a6.7 6.7 0 0 0 5.8 2.8c3.2 0 5.6-1.5 7-4.3v-13.6a7.4 7.4 0 0 0-7-4.2c-2.4 0-4.3 1-5.7 2.8-1.4 2-2.1 4.8-2.1 8.5ZM1492.5 762a13 13 0 0 1-9.8-4 14.7 14.7 0 0 1-3.7-10.6v-.9c0-3 .5-5.5 1.6-7.8 1.2-2.4 2.7-4.2 4.7-5.5 2-1.3 4.3-2 6.6-2a11 11 0 0 1 9 3.9c2.1 2.5 3.2 6.1 3.2 10.9v2h-20c0 3 .9 5.3 2.5 7.2a8 8 0 0 0 6.2 2.6c1.8 0 3.3-.3 4.5-1 1.3-.8 2.4-1.8 3.3-3l3 2.4a12.4 12.4 0 0 1-11 5.8Zm-.6-26.6c-2 0-3.7.8-5.1 2.3a10.9 10.9 0 0 0-2.6 6.2h14.8v-.4a9.7 9.7 0 0 0-2-6 6.4 6.4 0 0 0-5-2ZM1529.3 761.4h-5v-42h5ZM1536 746.4c0-3 .6-5.6 1.7-7.9 1.2-2.3 2.8-4 4.8-5.3a13 13 0 0 1 7-2c4 0 7.2 1.5 9.7 4.3 2.5 2.8 3.8 6.5 3.8 11v.4c0 3-.6 5.5-1.7 7.8a12.7 12.7 0 0 1-11.8 7.3c-4 0-7.3-1.4-9.7-4.2a16 16 0 0 1-3.8-11.1Zm5.1.5c0 3.3.8 6 2.3 8 1.5 2 3.6 3 6.1 3 2.6 0 4.6-1 6.1-3a14 14 0 0 0 2.3-8.5c0-3.3-.8-6-2.3-8-1.5-2-3.6-3-6.1-3-2.5 0-4.6 1-6 3-1.6 2-2.4 4.9-2.4 8.5ZM1568.1 746.4c0-4.6 1-8.3 3.2-11 2.1-2.8 5-4.1 8.5-4.1 3.6 0 6.4 1.3 8.4 3.8l.3-3.3h4.6v28.9a12 12 0 0 1-3.4 9 12.6 12.6 0 0 1-9.2 3.4c-2 0-4.2-.5-6.2-1.4-2-1-3.6-2.2-4.7-3.8l2.6-3a10 10 0 0 0 8 4c2.4 0 4.4-.7 5.7-2a8 8 0 0 0 2.1-5.9v-2.5c-2 2.3-4.8 3.5-8.3 3.5-3.4 0-6.3-1.4-8.4-4.2a18.3 18.3 0 0 1-3.2-11.4Zm5 .5c0 3.4.8 6 2.1 8 1.4 1.8 3.3 2.8 5.8 2.8 3.2 0 5.5-1.5 7-4.4v-13.5a7.5 7.5 0 0 0-7-4.2c-2.4 0-4.3 1-5.7 2.8-1.4 2-2.1 4.8-2.1 8.5ZM1606.2 761.4h-5v-29.6h5Zm-5.5-37.4c0-.8.3-1.5.8-2.1.5-.6 1.2-.8 2.2-.8 1 0 1.8.2 2.3.8.5.6.7 1.3.7 2a3 3 0 0 1-.7 2.1c-.5.6-1.3.9-2.3.9-1 0-1.7-.3-2.2-.9a3 3 0 0 1-.8-2ZM1626.2 757.8c1.8 0 3.4-.5 4.7-1.6 1.3-1.1 2.1-2.5 2.2-4.1h4.8c0 1.7-.7 3.3-1.7 4.8a12.4 12.4 0 0 1-10 5c-4 0-7.3-1.3-9.6-4a16 16 0 0 1-3.6-11v-.9c0-2.8.5-5.4 1.6-7.6a12.1 12.1 0 0 1 11.5-7.1c3.4 0 6.1 1 8.3 3 2.2 2 3.4 4.5 3.5 7.7h-4.8a7 7 0 0 0-2.1-4.7 6.7 6.7 0 0 0-4.9-1.9c-2.5 0-4.5 1-6 2.8a13.1 13.1 0 0 0-2 8v1c0 3.4.6 6 2 7.9a7.1 7.1 0 0 0 6 2.7ZM1442 338.5h-16.7l-3.7 10.4h-5.4l15.2-39.8h4.6l15.2 39.8h-5.4Zm-15-4.3h13.5l-6.8-18.6ZM1462.2 348.9h-5.3v-39.8h5.3ZM1490.4 348.9h-5.1v-42h5ZM1497.1 333.8c0-2.9.6-5.5 1.7-7.8s2.7-4 4.8-5.4a13 13 0 0 1 7-1.8c4 0 7.2 1.4 9.7 4.1 2.5 2.8 3.7 6.5 3.7 11.2v.3c0 3-.5 5.5-1.6 7.8a12.7 12.7 0 0 1-11.8 7.2c-4 0-7.3-1.4-9.8-4.1a16 16 0 0 1-3.7-11.1Zm5 .6c0 3.3.8 6 2.4 8 1.5 2 3.5 3 6 3 2.7 0 4.7-1 6.2-3.1a14 14 0 0 0 2.3-8.5c0-3.2-.8-5.8-2.3-7.9-1.6-2-3.6-3-6.2-3-2.5 0-4.5 1-6 3s-2.3 4.8-2.3 8.5ZM1529.2 333.8c0-4.6 1-8.2 3.2-11 2.1-2.7 5-4 8.4-4 3.7 0 6.5 1.2 8.5 3.8l.2-3.3h4.7v28.9a12 12 0 0 1-3.4 9 12.6 12.6 0 0 1-9.2 3.4c-2.1 0-4.2-.5-6.2-1.4-2-1-3.6-2.2-4.7-3.8l2.6-3a10 10 0 0 0 8 4c2.4 0 4.3-.7 5.7-2a8 8 0 0 0 2-6V346c-2 2.4-4.7 3.5-8.2 3.5-3.5 0-6.3-1.4-8.4-4.1a18.3 18.3 0 0 1-3.2-11.5Zm5 .6c0 3.4.7 6 2.1 7.9 1.4 1.9 3.3 2.8 5.7 2.8 3.2 0 5.6-1.4 7-4.3v-13.5a7.5 7.5 0 0 0-6.9-4.2c-2.5 0-4.4 1-5.8 2.8-1.3 2-2 4.8-2 8.5ZM1567.3 348.9h-5v-29.6h5Zm-5.5-37.4c0-.9.3-1.6.8-2.1.5-.6 1.2-.9 2.2-.9 1 0 1.7.3 2.2.9.5.5.8 1.2.8 2a3 3 0 0 1-.8 2.1c-.5.6-1.2.8-2.2.8-1 0-1.7-.2-2.2-.8a3 3 0 0 1-.8-2ZM1587.3 345.3c1.8 0 3.3-.5 4.7-1.6 1.3-1.1 2-2.5 2.2-4.1h4.8c0 1.7-.7 3.3-1.7 4.8a12.4 12.4 0 0 1-10 5c-4 0-7.3-1.3-9.7-4a16 16 0 0 1-3.5-11v-.9c0-2.9.5-5.4 1.5-7.7a12.1 12.1 0 0 1 11.6-7c3.3 0 6 1 8.3 3 2.2 2 3.4 4.5 3.5 7.7h-4.8a7 7 0 0 0-2.2-4.7 6.7 6.7 0 0 0-4.8-1.9c-2.6 0-4.6 1-6 2.8a13.1 13.1 0 0 0-2 8v1c0 3.4.6 6 2 7.9a7.1 7.1 0 0 0 6 2.7Zm0 0" fill="#1a202e"/>
</svg>
